<svg xmlns="http://www.w3.org/2000/svg" viewBox="0 0 1400 900" role="img" aria-labelledby="title desc">
  <title id="title">Industrial automation line</title>
  <desc id="desc">A clean blue automation line with sensors, control screens and robotic motion.</desc>
  <defs>
    <linearGradient id="bg" x1="0" y1="0" x2="1" y2="1">
      <stop offset="0" stop-color="#03162d"/>
      <stop offset=".72" stop-color="#082b56"/>
      <stop offset="1" stop-color="#0b63f6"/>
    </linearGradient>
    <filter id="glow">
      <feGaussianBlur stdDeviation="8" result="b"/>
      <feMerge><feMergeNode in="b"/><feMergeNode in="SourceGraphic"/></feMerge>
    </filter>
  </defs>
  <rect width="1400" height="900" fill="url(#bg)"/>
  <g opacity=".32" stroke="#43e7ff">
    <path d="M0 210h1400M0 390h1400M0 570h1400M0 750h1400"/>
    <path d="M130 0v900M340 0v900M550 0v900M760 0v900M970 0v900M1180 0v900"/>
  </g>
  <g transform="translate(130 565)">
    <rect width="1140" height="82" rx="10" fill="#dfeaf3"/>
    <path d="M0 41h1140" stroke="#829bb2" stroke-width="10" stroke-dasharray="26 22"/>
    <g fill="#ffffff" stroke="#9bb1c6">
      <rect x="80" y="-96" width="170" height="96" rx="7"/>
      <rect x="322" y="-142" width="220" height="142" rx="7"/>
      <rect x="630" y="-88" width="180" height="88" rx="7"/>
      <rect x="914" y="-130" width="190" height="130" rx="7"/>
    </g>
    <g stroke="#0b63f6" stroke-width="10" stroke-linecap="round">
      <path d="M112-62h104M112-32h72M358-94h148M358-58h96M664-54h112M954-86h112M954-50h70"/>
    </g>
  </g>
  <g transform="translate(720 180)" filter="url(#glow)">
    <path d="M0 230 150 96l118 72 142-138" fill="none" stroke="#43e7ff" stroke-width="12" stroke-linecap="round" stroke-linejoin="round"/>
    <circle cx="0" cy="230" r="18" fill="#43e7ff"/>
    <circle cx="150" cy="96" r="18" fill="#43e7ff"/>
    <circle cx="268" cy="168" r="18" fill="#43e7ff"/>
    <circle cx="410" cy="30" r="18" fill="#43e7ff"/>
  </g>
  <g transform="translate(180 170)">
    <rect width="360" height="230" rx="10" fill="#071d3b" stroke="#43e7ff" stroke-opacity=".35"/>
    <path d="M44 64h190M44 106h274M44 148h152" stroke="#ffffff" stroke-opacity=".8" stroke-width="14" stroke-linecap="round"/>
    <rect x="44" y="184" width="274" height="8" fill="#43e7ff"/>
  </g>
</svg>
