<svg xmlns="http://www.w3.org/2000/svg" viewBox="0 0 1200 820" role="img" aria-labelledby="title desc">
  <title id="title">Technical team work</title>
  <desc id="desc">A professional technical team beside an industrial control panel.</desc>
  <defs>
    <linearGradient id="bg" x1="0" y1="0" x2="1" y2="1">
      <stop offset="0" stop-color="#eef5fb"/>
      <stop offset="1" stop-color="#ffffff"/>
    </linearGradient>
    <linearGradient id="suite" x1="0" y1="0" x2="1" y2="1">
      <stop offset="0" stop-color="#071d3b"/>
      <stop offset="1" stop-color="#0b63f6"/>
    </linearGradient>
  </defs>
  <rect width="1200" height="820" fill="url(#bg)"/>
  <rect x="690" y="110" width="330" height="560" rx="9" fill="#dfeaf3" stroke="#9bb1c6"/>
  <rect x="730" y="154" width="250" height="86" rx="5" fill="#071d3b"/>
  <path d="M758 194h116M758 220h170" stroke="#43e7ff" stroke-width="8" stroke-linecap="round"/>
  <g stroke="#829bb2" stroke-width="10" stroke-linecap="round">
    <path d="M738 306h234M738 350h234M738 394h234"/>
  </g>
  <g transform="translate(220 188)">
    <circle cx="118" cy="82" r="56" fill="#b5c7d8"/>
    <path d="M28 456c0-154 42-246 90-246s90 92 90 246z" fill="url(#suite)"/>
    <rect x="72" y="150" width="92" height="78" rx="30" fill="#c8d9e8"/>
    <circle cx="338" cy="82" r="56" fill="#b5c7d8"/>
    <path d="M248 456c0-154 42-246 90-246s90 92 90 246z" fill="#0b63f6"/>
    <rect x="292" y="150" width="92" height="78" rx="30" fill="#c8d9e8"/>
  </g>
  <path d="M395 512c116-80 196-110 296-86" stroke="#43e7ff" stroke-width="10" stroke-linecap="round" stroke-dasharray="18 18"/>
</svg>
